<?xml version="1.0" encoding="iso-8859-1"?>
<!-- Generator: Adobe Illustrator 17.1.0, SVG Export Plug-In . SVG Version: 6.00 Build 0)  -->
<!DOCTYPE svg PUBLIC "-//W3C//DTD SVG 1.1//EN" "http://www.w3.org/Graphics/SVG/1.1/DTD/svg11.dtd">
<svg version="1.1" id="Capa_1" xmlns="http://www.w3.org/2000/svg" xmlns:xlink="http://www.w3.org/1999/xlink" x="0px" y="0px"
	 viewBox="0 0 378.06 378.06" style="enable-background:new 0 0 378.06 378.06;" xml:space="preserve">
<g>
	<polygon points="271.445,165.396 378.06,95.994 271.445,26.593 271.445,66.658 156.082,66.658 156.082,125.331 271.445,125.331 	
		"/>
	<path d="M65.575,30.419C29.417,30.419,0,59.836,0,95.994s29.417,65.575,65.575,65.575s65.575-29.417,65.575-65.575
		S101.733,30.419,65.575,30.419z"/>
	<polygon points="271.445,252.729 156.082,252.729 156.082,311.402 271.445,311.402 271.445,351.466 378.06,282.065 
		271.445,212.664 	"/>
	<path d="M65.575,216.49C29.417,216.49,0,245.907,0,282.065s29.417,65.575,65.575,65.575s65.575-29.417,65.575-65.575
		S101.733,216.49,65.575,216.49z"/>
</g>
<g>
</g>
<g>
</g>
<g>
</g>
<g>
</g>
<g>
</g>
<g>
</g>
<g>
</g>
<g>
</g>
<g>
</g>
<g>
</g>
<g>
</g>
<g>
</g>
<g>
</g>
<g>
</g>
<g>
</g>
</svg>
